<svg width="16" height="17" viewBox="0 0 16 17" fill="none" xmlns="http://www.w3.org/2000/svg">
<path d="M13.5 7.14748V4.14748" stroke="black" stroke-linecap="round" stroke-linejoin="round"/>
<path d="M15 5.64748H12" stroke="black" stroke-linecap="round" stroke-linejoin="round"/>
<path d="M10.5 1.64748V3.64748" stroke="black" stroke-linecap="round" stroke-linejoin="round"/>
<path d="M11.5 2.64748H9.49997" stroke="black" stroke-linecap="round" stroke-linejoin="round"/>
<path d="M13.5436 9.685C12.562 9.96027 11.5247 9.96929 10.5384 9.71113C9.5521 9.45297 8.65228 8.93693 7.93136 8.21601C7.21044 7.49509 6.6944 6.59528 6.43624 5.60897C6.17808 4.62266 6.1871 3.58541 6.46238 2.60374C5.49454 2.87313 4.61418 3.39138 3.90897 4.10689C3.20376 4.8224 2.69832 5.71018 2.443 6.68182C2.18767 7.65346 2.19137 8.67504 2.45373 9.6448C2.71609 10.6146 3.22796 11.4987 3.93833 12.209C4.64871 12.9194 5.53281 13.4313 6.50257 13.6936C7.47233 13.956 8.49391 13.9597 9.46555 13.7044C10.4372 13.4491 11.325 12.9436 12.0405 12.2384C12.756 11.5332 13.2742 10.6528 13.5436 9.685Z" stroke="black" stroke-linecap="round" stroke-linejoin="round"/>
</svg>
